<?xml version="1.0" encoding="utf-8"?>
<!-- Generator: Adobe Illustrator 27.0.0, SVG Export Plug-In . SVG Version: 6.00 Build 0)  -->
<svg version="1.1" id="Calque_1" xmlns="http://www.w3.org/2000/svg" xmlns:xlink="http://www.w3.org/1999/xlink" x="0px" y="0px"
	 viewBox="0 0 512 512" style="enable-background:new 0 0 512 512;" xml:space="preserve">
<style type="text/css">
	.st0{fill:#FC5656;}
</style>
<path class="st0" d="M408.4,103.8c-32.5-32.4-67.1-11.4-88.8,10.2L114.8,318.8c-21.7,21.7-44.4,54.7-10.2,88.8
	c34.1,34.1,67,11.4,88.7-10.3l204.8-204.8C419.8,170.9,440.8,136.2,408.4,103.8L408.4,103.8z M212.7,95.4l43.4,43.4l44.1-44.2
	c3-3,6-5.8,9.1-8.4c-4.6-23.3-17.9-44.4-53.3-44.4S207.3,63,202.8,86.3C206.1,89.2,209.4,92.1,212.7,95.4L212.7,95.4z M300.2,417.5
	l-44.1-44.1l-43.4,43.3c-3.3,3.3-6.5,6.4-9.8,9.2c5,23.8,19,45.5,53.1,45.5c34.2,0,48.3-21.9,53.2-45.7
	C306.2,423.1,303.2,420.5,300.2,417.5L300.2,417.5z M194.3,200.5h-83.6c-30.7,0-70,9.7-70,55.5c0,34.3,21.9,48.3,45.8,53.2
	C89.3,306,194.3,200.5,194.3,200.5L194.3,200.5z M425.8,202.8c-2.6,3-107.9,108.8-107.9,108.8h82.4c30.7,0,70-7.3,70-55.6
	C470.3,220.7,449.2,207.4,425.8,202.8z M221.7,173.1l14.9-14.9l-43.3-43.4c-21.7-21.7-54.6-44.4-88.8-10.2
	c-25,25-19.4,49.4-6.2,69.1C102.4,173.4,221.7,173.1,221.7,173.1z M290.4,339l-15,15l44.2,44.1c21.7,21.7,56.3,42.7,88.7,10.3
	c24.2-24.2,18.7-49.7,5.3-70C409.3,338.7,290.4,339,290.4,339z"/>
</svg>
